<svg id="Capa_1" enable-background="new 0 0 512 512" height="512" viewBox="0 0 512 512" width="512" xmlns="http://www.w3.org/2000/svg"><g><path d="m256 431.688c-4.143 0-7.5 3.357-7.5 7.5v16.308c0 4.143 3.357 7.5 7.5 7.5s7.5-3.357 7.5-7.5v-16.308c0-4.143-3.357-7.5-7.5-7.5z"/><path d="m273.644 375.142c4.143 0 7.5-3.357 7.5-7.5s-3.357-7.5-7.5-7.5h-35.286c-4.143 0-7.5 3.357-7.5 7.5s3.357 7.5 7.5 7.5z"/><path d="m474.5 216.858c4.143 0 7.5-3.357 7.5-7.5v-149.871c0-6.762-5.501-12.263-12.263-12.263h-427.474c-6.762 0-12.263 5.501-12.263 12.263v233.695c0 6.933 5.641 12.573 12.573 12.573h426.854c6.933 0 12.573-5.641 12.573-12.573v-53.837c0-4.143-3.357-7.5-7.5-7.5s-7.5 3.357-7.5 7.5v51.41h-422v-228.531h422v147.134c0 4.142 3.357 7.5 7.5 7.5z"/><path d="m469.737 17.224h-369.732c-4.143 0-7.5 3.357-7.5 7.5s3.357 7.5 7.5 7.5h369.732c15.033 0 27.263 12.23 27.263 27.263v261.268h-482v-261.268c0-15.033 12.23-27.263 27.263-27.263h27.756c4.143 0 7.5-3.357 7.5-7.5s-3.357-7.5-7.5-7.5h-27.756c-23.304 0-42.263 18.959-42.263 42.263v312.78c0 23.303 18.959 42.262 42.263 42.262h97.164c4.143 0 7.5-3.357 7.5-7.5s-3.357-7.5-7.5-7.5h-97.164c-15.033 0-27.263-12.23-27.263-27.262v-36.513h482v36.513c0 15.032-12.23 27.262-27.263 27.262h-300.324c-4.143 0-7.5 3.357-7.5 7.5s3.357 7.5 7.5 7.5h31.174c2.477 26.217-12.636 52.198-29.883 65.247h-37.488c-4.143 0-7.5 3.357-7.5 7.5s3.357 7.5 7.5 7.5h245.568c4.143 0 7.5-3.357 7.5-7.5s-3.357-7.5-7.5-7.5h-37.487c-17.247-13.049-32.361-39.03-29.884-65.247h158.324c23.304 0 42.263-18.959 42.263-42.262v-312.78c0-23.304-18.959-42.263-42.263-42.263zm-150.258 462.552h-126.958c14.643-16.715 25.039-40.547 23.138-65.247h80.682c-1.901 24.701 8.496 48.532 23.138 65.247z"/><path d="m201.538 254.805h.065c4.112 0 7.463-3.315 7.499-7.436.021-2.456.062-7.274.105-13.24h1.508c4.143 0 7.5-3.357 7.5-7.5s-3.357-7.5-7.5-7.5h-1.408c.1-16.907.152-35.141-.057-37.646-.452-5.425-3.7-9.846-8.276-11.263-4.529-1.403-9.367.365-12.929 4.735-3.963 4.861-22.349 38.008-27.89 48.051-1.281 2.323-1.24 5.151.109 7.437 1.349 2.284 3.805 3.687 6.458 3.687h27.483c-.034 4.643-.069 9.1-.104 13.111-.034 4.141 3.295 7.528 7.437 7.564zm-22.071-35.676c5.586-9.996 11.046-19.598 14.932-26.204.003 6.856-.036 16.354-.093 26.204z"/><path d="m336.099 254.805h.065c4.112 0 7.463-3.315 7.499-7.436.021-2.456.062-7.274.105-13.24h1.508c4.143 0 7.5-3.357 7.5-7.5s-3.357-7.5-7.5-7.5h-1.408c.1-16.907.152-35.141-.057-37.646-.452-5.425-3.7-9.846-8.276-11.263-4.527-1.403-9.366.365-12.929 4.735-3.963 4.861-22.349 38.008-27.89 48.051-1.281 2.323-1.24 5.151.109 7.437 1.349 2.284 3.805 3.687 6.458 3.687h27.483c-.034 4.643-.069 9.1-.104 13.111-.034 4.141 3.294 7.528 7.437 7.564zm-22.072-35.676c5.586-9.996 11.046-19.598 14.932-26.204.003 6.856-.036 16.354-.093 26.204z"/><path d="m255.831 170.361c-15.307 0-27.759 12.452-27.759 27.759v32.397c0 15.306 12.452 27.758 27.759 27.758 15.306 0 27.758-12.452 27.758-27.758v-32.397c0-15.307-12.452-27.759-27.758-27.759zm12.758 60.156c0 7.035-5.723 12.758-12.758 12.758s-12.759-5.723-12.759-12.758v-32.397c0-7.035 5.724-12.759 12.759-12.759s12.758 5.724 12.758 12.759z"/><path d="m187.344 124.818c1.465 1.464 3.385 2.196 5.304 2.196s3.839-.732 5.304-2.196l3.351-3.351 3.351 3.351c1.465 1.464 3.385 2.196 5.304 2.196s3.839-.732 5.304-2.196c2.929-2.93 2.929-7.678 0-10.607l-3.351-3.351 3.351-3.351c2.929-2.93 2.929-7.678 0-10.607-2.93-2.928-7.678-2.928-10.607 0l-3.351 3.351-3.351-3.351c-2.93-2.928-7.678-2.928-10.607 0-2.929 2.93-2.929 7.678 0 10.607l3.351 3.351-3.351 3.351c-2.931 2.929-2.931 7.677-.002 10.607z"/><path d="m296.739 124.818c1.465 1.464 3.385 2.196 5.304 2.196s3.839-.732 5.304-2.196l3.351-3.351 3.351 3.351c1.465 1.464 3.385 2.196 5.304 2.196s3.839-.732 5.304-2.196c2.929-2.93 2.929-7.678 0-10.607l-3.351-3.351 3.351-3.351c2.929-2.93 2.929-7.678 0-10.607-2.93-2.928-7.678-2.928-10.607 0l-3.351 3.351-3.351-3.351c-2.93-2.928-7.678-2.928-10.607 0-2.929 2.93-2.929 7.678 0 10.607l3.351 3.351-3.351 3.351c-2.93 2.929-2.93 7.677-.002 10.607z"/><path d="m289.955 150.549c1.84-3.711.323-8.211-3.388-10.052-20.283-10.057-40.851-10.057-61.134 0-3.711 1.841-5.228 6.341-3.388 10.052 1.31 2.641 3.965 4.17 6.726 4.17 1.119 0 2.256-.252 3.326-.782 16.084-7.977 31.722-7.977 47.806 0 3.712 1.837 8.211.322 10.052-3.388z"/></g></svg>