<svg id="Capa_1" enable-background="new 0 0 512 512" height="512" viewBox="0 0 512 512" width="512" xmlns="http://www.w3.org/2000/svg"><g><path d="m289.017 246c-12.15 0-23.633 4.21-33.015 11.992-9.378-7.78-20.86-11.992-33.014-11.992-29.578 0-53.643 25.432-53.643 56.69 0 45.478 26.198 67.876 71.459 91.2 2.134 1.098 8.153 4.461 10.293 5.664 1.522.856 3.212 1.284 4.902 1.284 1.689 0 3.379-.428 4.899-1.282 2.142-1.204 8.167-4.568 10.308-5.67 45.25-23.321 71.447-45.72 71.447-91.196.001-31.258-24.06-56.69-53.636-56.69zm-26.966 130.105c-1.368.705-3.814 2.045-6.05 3.282-2.232-1.237-4.676-2.576-6.042-3.278-45.885-23.646-60.613-41.486-60.613-73.419 0-20.231 15.092-36.69 33.643-36.69 8.984 0 17.434 3.824 23.798 10.776 2.363 2.576 5.722 4.054 9.216 4.054h.01c3.495-.002 6.854-1.484 9.21-4.06 6.36-6.945 14.811-10.771 23.795-10.771 18.548 0 33.638 16.459 33.638 36.69-.002 31.933-14.729 49.773-60.605 73.416z"/><path d="m337.859 195.905h-81.859c-29.558 0-53.604-24.201-53.604-53.949 0-29.747 24.047-53.948 53.604-53.948 22.018 0 42.128 13.889 50.042 34.561 6.833 17.853 23.374 29.388 42.14 29.388h1.168c15.265 0 29.401-7.619 37.816-20.382 8.329-12.632 9.758-28.44 3.823-42.287-23.249-54.241-76.235-89.288-134.989-89.288-81.012 0-146.919 66.24-146.919 147.66v330.94c0 18.417 14.983 33.4 33.4 33.4h227.037c18.417 0 33.4-14.983 33.4-33.4v-217.634c.001-35.875-29.185-65.061-65.059-65.061zm45.06 282.695c0 7.389-6.012 13.4-13.4 13.4h-227.038c-7.389 0-13.4-6.012-13.4-13.4v-330.94c0-70.391 56.936-127.66 126.919-127.66 50.743 0 96.514 30.289 116.606 77.166 3.328 7.764 2.549 16.292-2.138 23.399-4.703 7.132-12.598 11.391-21.119 11.391h-1.168c-10.407 0-19.616-6.491-23.462-16.538-10.855-28.357-38.473-47.41-68.72-47.41-40.586 0-73.604 33.173-73.604 73.948s33.019 73.949 73.604 73.949h81.859c24.846 0 45.06 20.214 45.06 45.061v217.634z"/><path d="m299.811 432.319h-87.621c-5.522 0-10 4.478-10 10s4.478 10 10 10h87.621c5.522 0 10-4.478 10-10s-4.478-10-10-10z"/></g></svg>